<?xml version="1.0" encoding="UTF-8"?>
<svg width="128" height="128" viewBox="0 0 128 128" xmlns="http://www.w3.org/2000/svg">
  <!-- Background gradient -->
  <defs>
    <linearGradient id="bgGradient" x1="0%" y1="0%" x2="100%" y2="100%">
      <stop offset="0%" style="stop-color:#667eea;stop-opacity:1" />
      <stop offset="100%" style="stop-color:#764ba2;stop-opacity:1" />
    </linearGradient>
    <linearGradient id="formGradient" x1="0%" y1="0%" x2="100%" y2="100%">
      <stop offset="0%" style="stop-color:#48bb78;stop-opacity:1" />
      <stop offset="100%" style="stop-color:#38a169;stop-opacity:1" />
    </linearGradient>
    <linearGradient id="lightGradient" x1="0%" y1="0%" x2="100%" y2="100%">
      <stop offset="0%" style="stop-color:#ffffff;stop-opacity:0.9" />
      <stop offset="100%" style="stop-color:#f7fafc;stop-opacity:0.8" />
    </linearGradient>
  </defs>

  <!-- Main circle background -->
  <circle cx="64" cy="64" r="60" fill="url(#bgGradient)" stroke="#4a5568" stroke-width="2"/>

  <!-- Form document -->
  <rect x="32" y="24" width="64" height="80" rx="6" ry="6" fill="url(#lightGradient)" stroke="#cbd5e0" stroke-width="1.5"/>

  <!-- Form lines (representing form fields) -->
  <rect x="40" y="36" width="48" height="4" rx="2" fill="#4299e1" opacity="0.8"/>
  <rect x="40" y="46" width="36" height="4" rx="2" fill="#cbd5e0"/>

  <rect x="40" y="58" width="48" height="4" rx="2" fill="#4299e1" opacity="0.8"/>
  <rect x="40" y="68" width="42" height="4" rx="2" fill="#cbd5e0"/>

  <rect x="40" y="80" width="48" height="4" rx="2" fill="#4299e1" opacity="0.8"/>
  <rect x="40" y="90" width="30" height="4" rx="2" fill="#cbd5e0"/>

  <!-- Smart arrow/cursor indicating automation -->
  <path d="M 75 56 L 85 66 L 75 76 L 78 73 L 82 69 L 100 69 L 100 63 L 82 63 L 78 59 Z"
        fill="url(#formGradient)" stroke="#2f855a" stroke-width="1"/>

  <!-- Sparkle effects for "smart" indication -->
  <circle cx="44" cy="32" r="2" fill="#ffd700" opacity="0.8"/>
  <circle cx="84" cy="36" r="1.5" fill="#ffd700" opacity="0.6"/>
  <circle cx="92" cy="96" r="2" fill="#ffd700" opacity="0.8"/>
  <circle cx="36" cy="96" r="1.5" fill="#ffd700" opacity="0.6"/>

  <!-- Small highlight for depth -->
  <circle cx="64" cy="64" r="60" fill="none" stroke="rgba(255,255,255,0.2)" stroke-width="1"/>
</svg>